<?xml version="1.0" encoding="UTF-8"?>
<svg id="Layer_1" data-name="Layer 1" xmlns="http://www.w3.org/2000/svg" viewBox="0 0 2971.09 603.83">
  <g>
    <path d="M752.24,474.37c-25.13-14.09-45.04-33.62-59.74-58.59-14.7-24.97-22.06-53.23-22.06-84.79s7.35-59.35,22.06-84.33c14.71-24.97,34.62-44.5,59.74-58.59,25.12-14.09,52.69-21.14,82.72-21.14s57.98,7.05,82.95,21.14c24.97,14.09,44.73,33.63,59.28,58.59,14.55,24.97,21.83,53.08,21.83,84.33s-7.28,59.82-21.83,84.79c-14.55,24.97-34.39,44.5-59.51,58.59-25.13,14.1-52.7,21.14-82.72,21.14s-57.6-7.04-82.72-21.14ZM885.96,424.96c14.71-8.73,26.19-21.21,34.47-37.45,8.27-16.24,12.41-35.08,12.41-56.52s-4.14-40.21-12.41-56.29c-8.27-16.08-19.76-28.41-34.47-36.99-14.71-8.57-31.71-12.87-51.01-12.87s-36.38,4.29-51.24,12.87c-14.86,8.58-26.42,20.91-34.7,36.99s-12.41,34.85-12.41,56.29,4.14,40.29,12.41,56.52c8.27,16.24,19.83,28.72,34.7,37.45,14.85,8.73,31.94,13.1,51.24,13.1s36.3-4.37,51.01-13.1Z" style="fill: #141414; stroke-width: 0px;"/>
    <path d="M1163.53,290.55h-44.58v201.74h-65.25v-201.74h-28.95v-52.85h28.95v-12.87c0-31.25,8.88-54.23,26.65-68.93,17.76-14.71,44.58-21.6,80.42-20.68v54.23c-15.63-.3-26.5,2.3-32.63,7.81-6.13,5.52-9.19,15.47-9.19,29.87v10.57h44.58v52.85Z" style="fill: #141414; stroke-width: 0px;"/>
    <path d="M1322.06,290.55h-44.58v201.74h-65.25v-201.74h-28.95v-52.85h28.95v-12.87c0-31.25,8.88-54.23,26.65-68.93,17.76-14.71,44.58-21.6,80.42-20.68v54.23c-15.63-.3-26.5,2.3-32.63,7.81-6.13,5.52-9.19,15.47-9.19,29.87v10.57h44.58v52.85Z" style="fill: #141414; stroke-width: 0px;"/>
    <path d="M1598.7,384.29h-186.12c1.53,18.38,7.96,32.79,19.3,43.2,11.33,10.42,25.27,15.62,41.82,15.62,23.9,0,40.9-10.26,51.01-30.79h69.39c-7.35,24.52-21.45,44.66-42.28,60.43-20.84,15.78-46.41,23.67-76.74,23.67-24.51,0-46.49-5.44-65.95-16.32-19.46-10.87-34.62-26.27-45.49-46.19-10.88-19.91-16.32-42.89-16.32-68.93s5.36-49.47,16.08-69.39c10.72-19.91,25.74-35.23,45.03-45.95,19.3-10.72,41.51-16.08,66.64-16.08s45.88,5.21,65.03,15.63c19.14,10.42,34.01,25.2,44.58,44.35,10.57,19.15,15.86,41.13,15.86,65.95,0,9.19-.62,17.46-1.84,24.82ZM1533.91,341.1c-.31-16.54-6.28-29.79-17.92-39.75-11.65-9.95-25.89-14.93-42.74-14.93-15.93,0-29.34,4.82-40.21,14.48-10.88,9.65-17.54,23.06-19.99,40.21h120.86Z" style="fill: #141414; stroke-width: 0px;"/>
    <path d="M1744.14,245.51c13.33-7.66,28.56-11.49,45.72-11.49v67.55h-17c-20.22,0-35.47,4.75-45.73,14.24-10.27,9.5-15.39,26.05-15.39,49.63v126.83h-64.34v-254.59h64.34v39.52c8.27-13.48,19.07-24.05,32.4-31.71Z" style="fill: #141414; stroke-width: 0px;"/>
    <path d="M1931.64,245.05c14.55-7.65,31.17-11.49,49.86-11.49,21.75,0,41.43,5.36,59.05,16.08,17.61,10.73,31.55,25.96,41.82,45.73,10.26,19.76,15.4,42.66,15.4,68.7s-5.13,49.1-15.4,69.16c-10.27,20.07-24.21,35.61-41.82,46.64-17.62,11.03-37.3,16.55-59.05,16.55-19,0-35.61-3.76-49.86-11.26-14.25-7.5-25.66-17.23-34.24-29.18v36.3h-64.34V152.22h64.34v122.7c8.27-12.25,19.68-22.21,34.24-29.87ZM2022.62,324.32c-6.28-11.18-14.55-19.68-24.82-25.5-10.27-5.82-21.37-8.73-33.32-8.73s-22.6,2.99-32.86,8.96c-10.27,5.97-18.54,14.63-24.82,25.96-6.28,11.34-9.42,24.66-9.42,39.98s3.14,28.65,9.42,39.98c6.27,11.34,14.55,19.99,24.82,25.96,10.26,5.97,21.21,8.96,32.86,8.96s23.05-3.06,33.32-9.19c10.26-6.12,18.53-14.85,24.82-26.19,6.28-11.33,9.42-24.82,9.42-40.44s-3.15-28.56-9.42-39.75Z" style="fill: #141414; stroke-width: 0px;"/>
    <path d="M2143.48,295.6c10.26-19.91,24.2-35.23,41.82-45.95,17.61-10.72,37.29-16.08,59.05-16.08,18.99,0,35.61,3.83,49.86,11.49,14.25,7.66,25.66,17.31,34.24,28.95v-36.3h64.8v254.59h-64.8v-37.22c-8.27,11.95-19.69,21.83-34.24,29.64-14.55,7.81-31.33,11.72-50.32,11.72-21.45,0-40.98-5.52-58.59-16.55-17.62-11.03-31.56-26.57-41.82-46.64-10.27-20.06-15.4-43.12-15.4-69.16s5.13-48.55,15.4-68.47ZM2319.26,324.78c-6.13-11.18-14.4-19.76-24.82-25.73-10.42-5.97-21.6-8.96-33.55-8.96s-22.98,2.92-33.09,8.73c-10.11,5.82-18.31,14.33-24.58,25.5-6.28,11.19-9.42,24.44-9.42,39.75s3.14,28.72,9.42,40.21c6.27,11.49,14.55,20.3,24.82,26.42,10.26,6.13,21.21,9.19,32.86,9.19s23.13-2.99,33.55-8.96c10.41-5.97,18.68-14.55,24.82-25.74,6.12-11.18,9.19-24.58,9.19-40.21s-3.07-29.02-9.19-40.21Z" style="fill: #141414; stroke-width: 0px;"/>
    <path d="M2497.56,485.16c-16.55-7.5-29.64-17.69-39.29-30.56s-14.94-27.11-15.85-42.74h64.8c1.22,9.81,6.05,17.92,14.48,24.36,8.42,6.43,18.91,9.65,31.48,9.65s21.83-2.45,28.72-7.35c6.89-4.9,10.34-11.18,10.34-18.84,0-8.27-4.21-14.48-12.64-18.61-8.43-4.14-21.83-8.65-40.21-13.56-19-4.6-34.55-9.34-46.64-14.25-12.11-4.9-22.52-12.41-31.25-22.52-8.73-10.11-13.1-23.74-13.1-40.9,0-14.09,4.06-26.96,12.18-38.6,8.11-11.64,19.76-20.83,34.93-27.57,15.16-6.74,33.01-10.11,53.54-10.11,30.33,0,54.53,7.58,72.61,22.75,18.07,15.16,28.03,35.61,29.87,61.35h-61.58c-.92-10.11-5.13-18.15-12.64-24.13-7.51-5.97-17.54-8.96-30.1-8.96-11.65,0-20.61,2.15-26.88,6.43-6.28,4.29-9.42,10.27-9.42,17.92,0,8.58,4.29,15.09,12.87,19.53,8.57,4.44,21.9,8.96,39.98,13.56,18.38,4.6,33.55,9.35,45.5,14.25,11.95,4.9,22.29,12.49,31.02,22.75,8.73,10.27,13.25,23.83,13.56,40.67,0,14.71-4.07,27.88-12.18,39.52-8.12,11.65-19.76,20.76-34.93,27.34-15.17,6.58-32.86,9.88-53.08,9.88s-39.52-3.76-56.06-11.26Z" style="fill: #141414; stroke-width: 0px;"/>
    <path d="M2941.48,384.29h-186.12c1.53,18.38,7.96,32.79,19.3,43.2,11.33,10.42,25.27,15.62,41.82,15.62,23.9,0,40.9-10.26,51.01-30.79h69.39c-7.35,24.52-21.45,44.66-42.28,60.43-20.84,15.78-46.41,23.67-76.74,23.67-24.51,0-46.49-5.44-65.95-16.32-19.46-10.87-34.62-26.27-45.49-46.19-10.88-19.91-16.32-42.89-16.32-68.93s5.36-49.47,16.08-69.39c10.72-19.91,25.74-35.23,45.03-45.95,19.3-10.72,41.51-16.08,66.64-16.08s45.88,5.21,65.03,15.63c19.14,10.42,34.01,25.2,44.58,44.35,10.57,19.15,15.86,41.13,15.86,65.95,0,9.19-.62,17.46-1.84,24.82ZM2876.69,341.1c-.31-16.54-6.28-29.79-17.92-39.75-11.65-9.95-25.89-14.93-42.74-14.93-15.93,0-29.34,4.82-40.21,14.48-10.88,9.65-17.54,23.06-19.99,40.21h120.86Z" style="fill: #141414; stroke-width: 0px;"/>
  </g>
  <g>
    <path d="M287.32,50.28c7.61,0,15.23,0,22.84,0,20.3,3.15,40.73,5.59,60.86,9.6,45.48,9.07,85.18,30.6,120.13,60.35,35.74,30.43,50.91,72.13,56.9,117.06,10.33,77.54-6.28,149.71-49.85,214.61-55.26,82.31-134.61,116.95-232.21,112.01-12.37-.63-25.3-3.87-36.63-8.9-30.18-13.4-55.99-33.33-77.9-58.09-44.24-50-68.99-108.47-75.78-174.78-6.04-58.9,4.37-114.4,35.39-165.09,30.11-49.2,72.27-83.68,128.76-98.52,15.49-4.07,31.65-5.57,47.5-8.26ZM445.49,298.99c.17-33.29-15.01-58.84-40.46-78.91-10.64-8.39-22.8-15-32.79-24.05-25.41-23.02-54.83-29.78-87.34-22.25-47.61,11.02-82.44,39.68-104.63,82.68-21.44,41.52-21.11,83.72,6.19,122.43,25.12,35.63,61.13,50.71,104.92,46.6,8.71-.82,17.57.14,26.36-.09,10.67-.27,21.71.68,31.94-1.68,51.22-11.77,95.64-70.2,95.81-124.73Z" style="fill: #000; stroke-width: 0px;"/>
    <path d="M508.32,137.47c-12.91-16.97-66.33-53.86-95.72-64.67-44.54-16.39-90.45-24.22-137.98-18.45-83.09,10.09-138.86,57.5-173.8,130.94-18.6,39.09-24.97,81.1-22.31,124.73,2.48,40.79,11.83,79.68,29.37,116.2,25.58,53.26,62.72,96.52,115.52,124.91,2.5,1.34,4.97,2.75,7.43,4.17.19.11,7.84,3.03,10.35,4.12-10.34-2.93-28.8-6.47-37.79-9.43-50.71-16.74-93.64-45.06-126.29-87.63-38.47-50.14-52.64-107.46-44.12-169.55,14.22-103.57,69.31-179.05,162.34-225.91,98.82-49.79,213.5-30.38,293.9,45.86l3.41,3.17c6.37,6.63,15.7,20.27,15.7,21.54Z" style="fill: #f1335f; stroke-width: 0px;"/>
    <path d="M306.5,425.26c4.29-.48,13.84-4.12,16.22-5.23,54.84-25.59,82.35-70.74,86.43-130.55,1.81-26.59-1.86-50.53-16.34-73.09-1.32-2.05-6.94-9.02-8.45-10.88.68.48,4.64,2.61,5.66,3.39,15.68,10.92,25.88,18.88,36.3,32.21,20.58,26.32,23.25,61.99,13.43,92.61-12.02,37.49-38.93,69.97-76.01,86.31-13.86,6.11-22.78,5.61-40.45,6.02" style="fill: #eb375e; stroke-width: 0px;"/>
    <path d="M532.27,169.61c62.03,82.86,63.51,187.51,9.04,275.6-43.35,70.11-106.01,111.55-186.34,126.4-27.23,5.03-54.82,4.02-81.93-2.7-2.15-.53-15.02-5.27-17.11-6.06.12-1.16-.12,1.16,0,0,5.1.71,26.01,1.47,26.01,1.47,40.43.71,79.26-8.06,116.04-25.13,41.75-19.38,74.97-48.99,100.15-87.04,25.51-38.54,43.06-80.83,49.39-126.9,6.5-47.26,4.85-94.09-12.8-139.3-3.41-8.73-8.54-18.75-11.69-27.59,0,0,7.78,9.1,9.23,11.24Z" style="fill: #00b0bf; stroke-width: 0px;"/>
    <path d="M383.02,204.56c-32.2-11.86-75.28-19.16-108.25-6.25-35.15,13.75-53.52,40.37-57.73,77.41-5.05,44.41,5.7,84.28,36.86,116.78,10.2,10.64,17.49,17.22,29.68,25.98,2.27,1.63,16.47,5.75,21.67,6.75-2.42,1.06-13.66,2.42-16.15,2.63-58.14,4.92-114.37-32.14-122.76-95.29-7.29-54.81,16.01-96.55,57.19-130.27,16.08-13.17,34-23.15,54.06-27.85,34.37-8.05,66.94-4.59,94.9,19.72,0,0,9.63,8.58,10.54,10.4Z" style="fill: #01adbb; stroke-width: 0px;"/>
  </g>
</svg>